<?xml version="1.0" standalone="no"?>
<!DOCTYPE svg PUBLIC "-//W3C//DTD SVG 1.1//EN"
"http://www.w3.org/Graphics/SVG/1.1/DTD/svg11.dtd">

<svg width="266" height="228" view_box="0 0 266 228"
xmlns="http://www.w3.org/2000/svg"
xmlns:link="http://www.w3.org/1999/xlink">\n\n<desc>Généré par Mocodo 2.3.7 le Wed, 03 Mar 2021 07:01:11</desc>

<rect id="frame" x="0" y="0" width="266" height="228" fill="#f7f7f7" stroke="none" stroke-width="0"/>

<!-- Association PEUT AVOIR -->
<line x1="76" y1="160" x2="76" y2="51" stroke="#de77ae" stroke-width="2"/>
<text x="81.0" y="93" fill="#4d9221" font-family="Verdana" font-size="12">0,1</text>
<line x1="216" y1="51" x2="76" y2="51" stroke="#de77ae" stroke-width="2"/>
<text x="148" y="68.0" fill="#4d9221" font-family="Verdana" font-size="12">0,N</text>
<g id="association-PEUT AVOIR">
	<path d="M 129 26 a 14 14 90 0 1 14 14 V 51 h -134 V 40 a 14 14 90 0 1 14 -14" fill="#f1b6da" stroke="#f1b6da" stroke-width="0"/>
	<path d="M 143 51.0 v 11 a 14 14 90 0 1 -14 14 H 23 a 14 14 90 0 1 -14 -14 V 51.0 H 134" fill="#fde0ef" stroke="#fde0ef" stroke-width="0"/>
	<rect x="9" y="26" width="134" height="50" fill="none" rx="14" stroke="#de77ae" stroke-width="2"/>
	<line x1="9" y1="51" x2="143" y2="51" stroke="#de77ae" stroke-width="1"/>
	<text x="38" y="43.7" fill="#000000" font-family="Verdana" font-size="12">PEUT AVOIR</text>
	<text x="16" y="68.8" fill="#000000" font-family="Verdana" font-size="12">nb. max. categorie.</text>
</g>

<!-- Entity TASKS -->
<g id="entity-TASKS">
	<g id="frame-TASKS">
		<rect x="37" y="101" width="78" height="25" fill="#b8e186" stroke="#b8e186" stroke-width="0"/>
		<rect x="37" y="126.0" width="78" height="93" fill="#e6f5d0" stroke="#e6f5d0" stroke-width="0"/>
		<rect x="37" y="101" width="78" height="118" fill="none" stroke="#7fbc41" stroke-width="2"/>
		<line x1="37" y1="126" x2="115" y2="126" stroke="#7fbc41" stroke-width="1"/>
	</g>
	<text x="55" y="118.7" fill="#000000" font-family="Verdana" font-size="12">TASKS</text>
	<text x="42" y="143.7" fill="#000000" font-family="Verdana" font-size="12">id</text>
	<line x1="42" y1="146" x2="54" y2="146" stroke="#000000" stroke-width="1"/>
	<text x="42" y="160.8" fill="#000000" font-family="Verdana" font-size="12">title</text>
	<text x="42" y="177.8" fill="#000000" font-family="Verdana" font-size="12">completion</text>
	<text x="42" y="194.8" fill="#000000" font-family="Verdana" font-size="12">category</text>
	<text x="42" y="211.8" fill="#000000" font-family="Verdana" font-size="12">status</text>
</g>

<!-- Entity CATEGORIE -->
<g id="entity-CATEGORIE">
	<g id="frame-CATEGORIE">
		<rect x="175" y="9" width="82" height="25" fill="#b8e186" stroke="#b8e186" stroke-width="0"/>
		<rect x="175" y="34.0" width="82" height="59" fill="#e6f5d0" stroke="#e6f5d0" stroke-width="0"/>
		<rect x="175" y="9" width="82" height="84" fill="none" stroke="#7fbc41" stroke-width="2"/>
		<line x1="175" y1="34" x2="257" y2="34" stroke="#7fbc41" stroke-width="1"/>
	</g>
	<text x="180" y="26.7" fill="#000000" font-family="Verdana" font-size="12">CATEGORIE</text>
	<text x="180" y="51.8" fill="#000000" font-family="Verdana" font-size="12">id</text>
	<line x1="180" y1="54" x2="192" y2="54" stroke="#000000" stroke-width="1"/>
	<text x="180" y="68.8" fill="#000000" font-family="Verdana" font-size="12">name</text>
	<text x="180" y="85.8" fill="#000000" font-family="Verdana" font-size="12">status</text>
</g>
</svg>