<?xml version="1.0" standalone="no"?>
<!DOCTYPE svg PUBLIC "-//W3C//DTD SVG 1.1//EN"
"http://www.w3.org/Graphics/SVG/1.1/DTD/svg11.dtd">

<svg width="316" height="102" view_box="0 0 316 102"
xmlns="http://www.w3.org/2000/svg"
xmlns:link="http://www.w3.org/1999/xlink">\n\n<desc>Généré par Mocodo 2.3.7 le Thu, 04 Mar 2021 00:42:32</desc>

<rect id="frame" x="0" y="0" width="316" height="102" fill="#ffffbf" stroke="none" stroke-width="0"/>

<!-- Association belongs to -->
<line x1="48" y1="51" x2="158" y2="51" stroke="#f46d43" stroke-width="2"/>
<text x="92" y="68.0" fill="#1a9850" font-family="Verdana" font-size="12">1,1</text>
<line x1="268" y1="51" x2="158" y2="51" stroke="#f46d43" stroke-width="2"/>
<text x="202" y="68.0" fill="#1a9850" font-family="Verdana" font-size="12">0,N</text>
<g id="association-belongs to">
	<path d="M 183 26 a 14 14 90 0 1 14 14 V 51 h -78 V 40 a 14 14 90 0 1 14 -14" fill="#fdae61" stroke="#fdae61" stroke-width="0"/>
	<path d="M 197 51.0 v 11 a 14 14 90 0 1 -14 14 H 133 a 14 14 90 0 1 -14 -14 V 51.0 H 78" fill="#fee08b" stroke="#fee08b" stroke-width="0"/>
	<rect x="119" y="26" width="78" height="50" fill="none" rx="14" stroke="#f46d43" stroke-width="2"/>
	<line x1="119" y1="51" x2="197" y2="51" stroke="#f46d43" stroke-width="1"/>
	<text x="126" y="43.7" fill="#000000" font-family="Verdana" font-size="12">belongs to</text>
</g>

<!-- Entity CATEGORY -->
<g id="entity-CATEGORY">
	<g id="frame-CATEGORY">
		<rect x="229" y="17" width="78" height="25" fill="#a6d96a" stroke="#a6d96a" stroke-width="0"/>
		<rect x="229" y="42.0" width="78" height="43" fill="#d9ef8b" stroke="#d9ef8b" stroke-width="0"/>
		<rect x="229" y="17" width="78" height="68" fill="none" stroke="#66bd63" stroke-width="2"/>
		<line x1="229" y1="42" x2="307" y2="42" stroke="#66bd63" stroke-width="1"/>
	</g>
	<text x="234" y="34.7" fill="#000000" font-family="Verdana" font-size="12">CATEGORY</text>
	<text x="234" y="59.8" fill="#000000" font-family="Verdana" font-size="12">name</text>
	<line x1="234" y1="62" x2="269" y2="62" stroke="#000000" stroke-width="1"/>
	<text x="234" y="76.8" fill="#000000" font-family="Verdana" font-size="12">status</text>
</g>

<!-- Entity TASK -->
<g id="entity-TASK">
	<g id="frame-TASK">
		<rect x="9" y="9" width="78" height="25" fill="#a6d96a" stroke="#a6d96a" stroke-width="0"/>
		<rect x="9" y="34.0" width="78" height="59" fill="#d9ef8b" stroke="#d9ef8b" stroke-width="0"/>
		<rect x="9" y="9" width="78" height="84" fill="none" stroke="#66bd63" stroke-width="2"/>
		<line x1="9" y1="34" x2="87" y2="34" stroke="#66bd63" stroke-width="1"/>
	</g>
	<text x="31" y="26.7" fill="#000000" font-family="Verdana" font-size="12">TASK</text>
	<text x="14" y="51.8" fill="#000000" font-family="Verdana" font-size="12">title</text>
	<line x1="14" y1="54" x2="38" y2="54" stroke="#000000" stroke-width="1"/>
	<text x="14" y="68.8" fill="#000000" font-family="Verdana" font-size="12">completion</text>
	<text x="14" y="85.8" fill="#000000" font-family="Verdana" font-size="12">status</text>
</g>
</svg>